<?xml version="1.0" encoding="iso-8859-1"?>
<!-- Generator: Adobe Illustrator 16.0.0, SVG Export Plug-In . SVG Version: 6.00 Build 0)  -->
<!DOCTYPE svg PUBLIC "-//W3C//DTD SVG 1.1//EN" "http://www.w3.org/Graphics/SVG/1.1/DTD/svg11.dtd">
<svg version="1.1" id="Capa_1" xmlns="http://www.w3.org/2000/svg" xmlns:xlink="http://www.w3.org/1999/xlink" x="0px" y="0px"
	 width="792.015px" height="792.015px" viewBox="0 0 792.015 792.015" style="enable-background:new 0 0 792.015 792.015;"
	 xml:space="preserve">
<g>
	<g>
		<path d="M300.037,664.84c0.496-1.205,0.702-2.594,0.43-4.154c-7.798-44.453-4.758-88.889-1.157-133.604
			c3.866-47.963,4.056-94.91,3.313-142.981c-1.504-97.355,3.544-195.057-6.32-292.082c19.198,1.784,48.235,1.834,57.009-18.876
			c7.327-17.298-3.197-35.894-14.234-48.938C328.372,11.542,311.396-0.891,293.99,0.05c-12.259,0.661-19.686,8.096-24.105,17.745
			c-4.717-8.17-11.541-14.696-21.454-16.943c-15.613-3.544-31.16,6.138-41.313,17.166c-10.285,11.193-17.059,27.724-13.325,42.907
			c4.13,16.77,21.842,22.47,37.373,23.552c14.613,188.911,6.89,376.757,8.054,565.908c-7.418-2.033-13.878-1.438-23.461,3.172
			c-14.597,7.029-25.543,21.824-31.862,36.256c-8.707,19.885-8.591,50.879,11.871,63.824c26.394,16.713,58.124,4.361,72.845-18.777
			c3.123,4.883,7.468,8.799,13.564,10.947c16.009,5.65,32.226-3.123,44.287-13.219c11.392-9.523,23.139-26.799,19.438-42.469
			C341.061,669.623,318.029,665.451,300.037,664.84z"/>
		<path d="M612.995,274.627c3.469-46.617-7.997-95.381-36.721-132.729c-32.804-42.667-84.699-58.396-136.734-57.661
			c1.264-12.516-0.611-25.733-12.077-33.044c-10.368-6.608-24.552-2.429-34.11,3.577c-9.318,5.849-18.058,15.836-17.91,27.426
			c0.107,8.245,4.857,13.953,11.227,17.86c-11.193,5.139-20.735,13.085-22.213,26.146c-1.686,14.837,9.26,27.608,20.289,35.927
			c10.186,7.683,25.923,14.06,38.546,8.93c14.109-5.725,16.149-20.512,14.621-34.118c63.387,6.171,113.729,44.551,120.52,112.307
			c7.195,71.812-48.682,116.223-115.24,116.826c10.921-28.963-20.628-59.743-51.309-40.487
			c-11.689,7.336-18.455,22.883-16.299,36.406c1.933,12.152,9.145,19.892,18.917,24.221c-17.133,20.173-13.623,47.302,12.482,61.925
			c2.471,1.387,4.883,2.412,7.245,3.271c-4.387,2.594-8.244,5.98-11.053,10.391c-7.015,10.996-3.206,22.371,3.122,32.334
			c-11.268-0.041-22.569,2.057-31.5,9.318c-8.938,7.27-10.723,19.059-9.219,29.805c2.974,21.273,21.082,43.586,41.585,50.211
			c10.202,3.295,21.371,0.604,28.046-8.014c7.757-10.02,9.368-22.99,9.153-35.555c39.908,9.26,62.857,34.168,60.412,78.43
			c-2.379,42.998-33.911,67.516-74.158,62.387c2.412-13.152,3.09-28.418-4.568-39.926c-5.923-8.896-16.191-12.953-26.666-11.689
			c-19.703,2.379-41.421,18.365-45.469,38.604c-1.875,9.393,0.95,18.545,7.873,25.195c4.238,4.064,9.442,6.676,14.82,8.855
			c0.768,0.314,1.644,0.604,2.461,0.91c-17.868,9.697-31.532,28.5-32.44,48.697c-1,22.107,19.826,39.223,40.214,40.57
			c28.798,1.9,60.809-30.689,48.178-55.035c69.152,1.693,126.986-35.24,133.703-110.225c5.295-59.158-32.449-128.863-94.943-134.918
			c8.253-10.045,13.929-23.264,4.668-34.738c-7.179-8.896-19.719-12.027-31.136-12.572c5.659-6.287,9.096-15.291,9.368-25.684
			C548.072,446.678,606.915,356.377,612.995,274.627z"/>
	</g>
</g>
<g>
</g>
<g>
</g>
<g>
</g>
<g>
</g>
<g>
</g>
<g>
</g>
<g>
</g>
<g>
</g>
<g>
</g>
<g>
</g>
<g>
</g>
<g>
</g>
<g>
</g>
<g>
</g>
<g>
</g>
</svg>
